<svg xmlns="http://www.w3.org/2000/svg" xmlns:xlink="http://www.w3.org/1999/xlink" version="1.1" x="0px" y="0px" preserveAspectRatio="none" viewBox="0 0 100 125" enable-background="new 0 0 100 100" xml:space="preserve"><path fill-rule="evenodd" clip-rule="evenodd" fill="#000000" d="M94.309,91.12c-0.434-0.976-0.804-1.999-1.458-2.873  c-0.372-0.495-0.66-1.057-1.046-1.537c-0.316-0.39-0.692-0.744-1.096-1.038c-0.373-0.269-1.008,0.044-1.039,0.516  c-0.025,0.379,0.032,0.801,0.181,1.148c0.292,0.688,0.465,1.358,0.24,2.221c-0.65-0.22-1.238-0.398-1.813-0.615  c-2.67-0.999-5.305-2.102-8.009-2.989c-3.538-1.162-6.917-2.656-10.224-4.342c-1.523-0.776-3.057-1.54-4.576-2.329  c-0.605-0.316-1.2-0.658-1.768-1.037c-3.558-2.378-7.112-4.762-10.652-7.166c-0.705-0.479-1.371-1.025-2.016-1.583  c-3.884-3.366-7.476-7.04-11.161-10.615c-2.958-2.869-5.585-6.002-8.111-9.25c-4.098-5.275-8.024-10.664-11.471-16.387  c-1.912-3.176-3.716-6.407-5.02-9.896c-0.558-1.492-1.24-2.938-1.862-4.407c-0.868-2.045-1.735-4.09-2.588-6.142  c-0.128-0.306-0.177-0.649-0.245-0.913c0.073-0.125,0.087-0.195,0.131-0.218c0.878-0.473,1.271-1.31,1.465-2.198  c0.198-0.897,0.11-1.848-0.276-2.686c-0.423-0.919-1.209-1.54-2.222-1.702c-2.182-0.35-3.325,0.413-4.001,2.516  C5.466,8.237,5.519,8.806,5.797,9.41c0.747,1.629,0.732,1.636,2.325,2.236c0.207,0.08,0.418,0.162,0.685,0.265  c0.687,2.803,1.336,5.457,2.492,7.959c0.574,1.241,1.099,2.514,1.52,3.81c1.149,3.556,2.925,6.81,4.83,9.986  c2.992,4.988,6.184,9.85,9.809,14.416c1.809,2.277,3.556,4.605,5.355,6.892c0.634,0.804,1.3,1.589,2.024,2.314  c2.701,2.704,5.426,5.386,8.151,8.068c3.993,3.929,8.152,7.653,12.956,10.591c0.974,0.594,1.914,1.246,2.846,1.904  c3.036,2.148,6.265,3.951,9.614,5.563c3.703,1.783,7.41,3.537,11.419,4.551c1.104,0.278,2.186,0.647,3.275,0.99  c0.488,0.155,1.002,0.282,1.441,0.532c1.302,0.742,2.684,1.241,4.141,1.56c0.319,0.071,0.672,0.158,0.72,0.692  c-0.219,0.178-0.474,0.387-0.734,0.594c-0.444,0.355-0.915,0.682-1.333,1.068c-0.511,0.471-0.69,1.077-0.457,1.348  c0.312,0.365,0.734,0.239,1.116,0.198c0.39-0.041,0.802-0.098,1.151-0.264c0.609-0.294,1.205-0.642,1.758-1.035  c0.482-0.343,0.98-0.557,1.57-0.589c0.282-0.017,0.569-0.061,0.843-0.138C94.281,92.657,94.697,91.999,94.309,91.12z"/></svg>